<?xml version="1.0" encoding="utf-8"?>
<!-- Generator: Adobe Illustrator 26.3.1, SVG Export Plug-In . SVG Version: 6.00 Build 0)  -->
<svg version="1.1" id="Layer_1" xmlns:v="https://vecta.io/nano"
	 xmlns="http://www.w3.org/2000/svg" xmlns:xlink="http://www.w3.org/1999/xlink" x="0px" y="0px" viewBox="0 0 386.97 56.28"
	 style="enable-background:new 0 0 386.97 56.28;" xml:space="preserve">
<style type="text/css">
	.st0{fill:#ED1C24;}
	.st1{fill:#FFFFFF;}
</style>
<path class="st0" d="M386.97,55.5h-17.43V37.67h17.4L386.97,55.5z"/>
<path class="st1" d="M31.88,1.06v11.57H13.83v9.3h16.9v11.11h-16.9v22.39H0V1.06H31.88z M67.55,1.06v11.57H49.5v9.3h16.91v11.11
	H49.5v10.82h18.74v11.57h-32.9V1.06H67.55z M88.04,45.23c1.37,0,2.46-0.2,3.28-0.57c0.82-0.39,1.43-1.18,1.87-2.4
	c0.43-1.23,0.71-2.95,0.84-5.18l0.19-8.84l-0.19-8.84c-0.13-2.23-0.42-3.95-0.84-5.18c-0.44-1.21-1.05-2.01-1.87-2.4
	c-0.81-0.38-1.9-0.57-3.28-0.57h-2.82v33.97L88.04,45.23L88.04,45.23z M91.62,1.06c4.11,0,7.31,0.75,9.59,2.24s4,3.51,5.14,6.02
	s1.84,5.41,2.1,8.68c0.25,3.27,0.38,6.69,0.38,10.24c0,3.42-0.12,6.83-0.38,10.24c-0.26,3.27-0.96,6.17-2.1,8.68
	c-1.1,2.46-2.88,4.55-5.14,6.02c-2.29,1.49-5.48,2.24-9.59,2.24H71.06V1.05L91.62,1.06C91.62,1.06,91.62,1.06,91.62,1.06z
	 M144.18,1.06v11.57h-18.05v9.3h16.9v11.11h-16.9v10.82h18.72v11.57h-32.89V1.06L144.18,1.06z M164.81,24.19
	c2.03,0,3.53-0.6,4.5-1.79c0.96-1.18,1.44-2.74,1.44-4.68c0-2.28-0.47-3.9-1.41-4.87c-0.94-0.96-2.47-1.45-4.61-1.45H162v12.79
	L164.81,24.19C164.81,24.19,164.81,24.19,164.81,24.19z M169.94,1.2c2.68,0,4.98,0.36,6.88,1.07s3.45,1.71,4.64,3.01
	c1.19,1.29,2.05,2.83,2.58,4.6c0.53,1.78,0.8,3.7,0.8,5.79c0,3.66-0.73,6.6-2.2,8.83c-1.46,2.23-3.81,3.61-7.04,4.11v0.15
	c3.38,0.31,5.71,1.51,6.96,3.58c1.26,2.09,1.9,4.95,1.9,8.61v4.65v2.21l0.07,2.17c0.05,0.69,0.13,1.32,0.23,1.86
	c0.1,0.57,0.23,0.99,0.38,1.3l0.61,0.88c0.2,0.28,0.53,0.54,0.99,0.8v0.76h-15c-0.36-0.71-0.61-1.54-0.8-2.5
	c-0.18-0.96-0.3-1.93-0.37-2.91l-0.15-2.77l-0.04-2.17v-3.66c0-1.52-0.08-2.78-0.23-3.81c-0.15-1.01-0.42-1.81-0.8-2.4
	c-0.38-0.58-0.86-0.98-1.44-1.21c-0.58-0.24-1.31-0.35-2.17-0.35H162v21.77h-14.17V1.2C147.83,1.2,169.94,1.2,169.94,1.2z
	 M210.25,12.18l-3.88,23.08h7.92l-3.89-23.08C210.4,12.18,210.25,12.18,210.25,12.18z M219.24,1.06l13.24,54.37H217.4l-1.44-9.51
	h-11.28l-1.44,9.51h-14.85l13.02-54.37L219.24,1.06L219.24,1.06z M227.95,13.09V1.06h35.33v12.03h-10.66v42.34h-14.17V13.09H227.95z
	 M266.83,1.06H281v54.37h-14.17L266.83,1.06z M299.7,37.35c0.1,2.42,0.32,4.33,0.65,5.75s0.82,2.41,1.45,2.97s1.49,0.83,2.55,0.83
	c1.07,0,1.91-0.28,2.55-0.83c0.64-0.56,1.12-1.55,1.45-2.97s0.55-3.33,0.65-5.75l0.15-9.1l-0.15-9.1c-0.1-2.41-0.32-4.33-0.65-5.75
	s-0.81-2.42-1.45-2.97s-1.48-0.84-2.55-0.84c-1.06,0-1.92,0.28-2.55,0.84c-0.64,0.55-1.12,1.55-1.45,2.97
	c-0.32,1.42-0.55,3.34-0.65,5.75l-0.15,9.1L299.7,37.35 M285.93,15.26c0.65-3.58,1.74-6.5,3.27-8.75c1.46-2.22,3.56-3.94,6.01-4.96
	C297.7,0.51,300.74,0,304.35,0c3.6,0,6.65,0.52,9.14,1.55c2.45,1.02,4.55,2.74,6.01,4.96c1.53,2.25,2.62,5.17,3.28,8.75
	s0.99,7.91,0.99,12.99c0,5.07-0.33,9.4-0.99,12.98s-1.75,6.5-3.28,8.76c-1.52,2.25-3.53,3.87-6.01,4.84
	c-2.49,0.96-5.54,1.45-9.14,1.45s-6.64-0.49-9.14-1.45c-2.49-0.96-4.49-2.58-6.01-4.84c-1.53-2.26-2.62-5.18-3.27-8.76
	c-0.66-3.58-1-7.91-1-12.98C284.93,23.17,285.27,18.84,285.93,15.26 M343.35,1.06l9.14,33.5h0.15V1.06h13.25v54.37h-15.54
	l-9.44-33.58h-0.15v33.58h-13.25V1.06L343.35,1.06z"/>
</svg>
