<?xml version="1.0" encoding="utf-8"?>
<!-- Generator: Adobe Illustrator 26.4.0, SVG Export Plug-In . SVG Version: 6.00 Build 0)  -->
<svg version="1.1" id="Layer_1" xmlns="http://www.w3.org/2000/svg" xmlns:xlink="http://www.w3.org/1999/xlink" x="0px" y="0px"
	 viewBox="0 0 180.12 52.03" style="enable-background:new 0 0 180.12 52.03;" xml:space="preserve">
<style type="text/css">
	.st0{clip-path:url(#SVGID_00000060722689556105752240000001826394553203370651_);fill:#007C4E;}
	.st1{clip-path:url(#SVGID_00000060722689556105752240000001826394553203370651_);fill:#00B18F;}
	.st2{clip-path:url(#SVGID_00000060722689556105752240000001826394553203370651_);fill:#1C164B;}
</style>
<g>
	<defs>
		<rect id="SVGID_1_" width="180.11" height="52.03"/>
	</defs>
	<clipPath id="SVGID_00000056414298408278268830000007817714251492939453_">
		<use xlink:href="#SVGID_1_"  style="overflow:visible;"/>
	</clipPath>
	<path style="clip-path:url(#SVGID_00000056414298408278268830000007817714251492939453_);fill:#007C4E;" d="M43.12,24.8l0-24.8
		C33.58,14.28,17.98,24.18,0,26.02c17.98,1.84,33.58,11.74,43.12,26.02l0-24.8c-10.82,0.01-21.39-0.53-31.68-1.21
		C21.74,25.33,32.31,24.8,43.12,24.8"/>
	<path style="clip-path:url(#SVGID_00000056414298408278268830000007817714251492939453_);fill:#00B18F;" d="M43.12,24.8l0-24.8
		c9.55,14.28,25.14,24.18,43.12,26.02c-17.98,1.84-33.58,11.74-43.12,26.02l0-24.8c10.82,0.01,21.39-0.53,31.68-1.21
		C64.51,25.33,53.94,24.8,43.12,24.8"/>
	<polygon style="clip-path:url(#SVGID_00000056414298408278268830000007817714251492939453_);fill:#1C164B;" points="95.3,15.43 
		86.25,15.43 86.25,8.52 114.14,8.52 114.14,15.43 105.09,15.43 105.09,43.51 95.3,43.51 	"/>
	<path style="clip-path:url(#SVGID_00000056414298408278268830000007817714251492939453_);fill:#1C164B;" d="M119.06,34.88
		c2.53,1.3,6.05,2.31,10.11,2.31c3.11,0,6.05-0.6,6.05-3.41c0-6.52-17.37-2.41-17.37-15.14c0-8.42,8.63-10.73,16-10.73
		c3.53,0,7,0.5,9.47,1.3l0.01,7.22c-2.53-1.1-6.01-1.61-8.8-1.61c-2.47,0-6.58,0.2-6.58,3.26c0,5.67,17.37,1.86,17.37,14.49
		c0,9.07-8,11.53-16.16,11.53c-3.42,0-7.08-0.5-10.35-1.5L119.06,34.88z"/>
	<path style="clip-path:url(#SVGID_00000056414298408278268830000007817714251492939453_);fill:#1C164B;" d="M160.11,36.89h2.89
		c3.58,0,7.32-0.5,7.32-4.06c0-3.81-3.84-4.16-7.21-4.16h-3V36.89z M160.11,22.35h2.74c3.21,0,6.53-0.75,6.53-3.71
		c0-3.21-3.16-3.51-6.42-3.51h-2.84V22.35z M150.32,8.52h16.9c6.84,0,11.95,2.86,11.95,8.87c0,4.41-2.37,6.87-6.47,8.17v0.1
		c4.89,0.95,7.42,3.46,7.42,7.72c0,8.37-7.74,10.13-14.32,10.13h-15.47V8.52z"/>
</g>
</svg>
